<?xml version="1.0" encoding="utf-8"?>
<svg version="1.1" xmlns="http://www.w3.org/2000/svg" xmlns:xlink="http://www.w3.org/1999/xlink" x="0px" y="0px"
	 width="34.016px" height="34.016px" viewBox="0 0 34.016 34.016" style="enable-background:new 0 0 34.016 34.016;"
	 xml:space="preserve">
<g id="icon-analyses">
<g>
	<g>
		<path class="first" d="M31.884,14.642c0-6.228-5.049-11.276-11.277-11.276c-3.877,0-7.297,1.958-9.325,4.938
			c0.688-0.132,1.399-0.207,2.129-0.207c6.229,0,11.276,5.049,11.276,11.277c0,2.351-0.721,4.529-1.951,6.337
			C27.946,24.715,31.884,20.141,31.884,14.642z"/>
		<path class="line" d="M21.642,26.429l0.681-0.999c1.22-1.792,1.864-3.886,1.864-6.056c0-6.606-5.98-11.886-12.811-10.579l-1.188,0.228l0.68-1
			c2.198-3.229,5.838-5.157,9.739-5.157c6.494,0,11.777,5.283,11.777,11.776c0,5.64-4.019,10.502-9.555,11.561L21.642,26.429z
			 M13.41,7.597c6.493,0,11.776,5.283,11.776,11.777c0,1.956-0.479,3.855-1.396,5.56c4.463-1.375,7.593-5.53,7.593-10.292
			c0-5.942-4.835-10.776-10.777-10.776c-3.17,0-6.154,1.393-8.19,3.775C12.751,7.612,13.083,7.597,13.41,7.597z"/>
	</g>
	<g>
		<path class="first" d="M9.331,14.642c0-2.35,0.72-4.531,1.95-6.337c-5.21,0.997-9.148,5.57-9.148,11.07
			c0,6.228,5.049,11.276,11.277,11.276c3.878,0,7.297-1.959,9.325-4.939c-0.688,0.133-1.399,0.207-2.129,0.207
			C14.379,25.918,9.331,20.869,9.331,14.642z"/>
		<path class="line" d="M13.41,31.152c-6.494,0-11.777-5.283-11.777-11.776c0-5.64,4.018-10.502,9.555-11.562l1.188-0.228l-0.682,1
			c-1.219,1.789-1.863,3.883-1.863,6.055c0,5.941,4.834,10.776,10.775,10.777c0.669,0,1.354-0.066,2.034-0.198l1.189-0.229
			l-0.682,1.002C20.95,29.223,17.31,31.152,13.41,31.152z M10.225,9.082c-4.463,1.376-7.592,5.532-7.592,10.293
			c0,5.942,4.834,10.776,10.777,10.776c3.17,0,6.153-1.393,8.19-3.776c-6.904,0.609-12.77-4.911-12.77-11.733
			C8.831,12.684,9.31,10.785,10.225,9.082z"/>
	</g>
	<g>
		<path class="second" d="M13.41,8.097c-0.729,0-1.439,0.075-2.129,0.207c-1.23,1.807-1.95,3.987-1.95,6.337
			c0,6.229,5.049,11.276,11.275,11.276c0.729,0,1.439-0.074,2.129-0.207c1.23-1.808,1.951-3.986,1.951-6.337
			C24.687,13.146,19.638,8.097,13.41,8.097z"/>
		<path class="line" d="M20.607,26.417c-6.493,0-11.775-5.283-11.775-11.776c0-2.373,0.705-4.662,2.037-6.618l0.116-0.171l0.203-0.039
			c7.451-1.425,13.999,4.341,13.999,11.561c0,2.371-0.705,4.66-2.038,6.618l-0.116,0.171l-0.202,0.039
			C22.086,26.345,21.338,26.417,20.607,26.417z M11.58,8.758c-1.145,1.751-1.749,3.781-1.749,5.883
			c0,5.942,4.834,10.776,10.775,10.776c0.602,0,1.216-0.054,1.83-0.161c1.146-1.753,1.75-3.782,1.75-5.883
			C24.186,12.834,18.35,7.587,11.58,8.758z"/>
	</g>
</g>
</g>
</svg>
