<?xml version="1.0" encoding="utf-8"?>
<svg version="1.1" xmlns="http://www.w3.org/2000/svg" xmlns:xlink="http://www.w3.org/1999/xlink" x="0px" y="0px"
	 width="34.016px" height="34.016px" viewBox="0 0 34.016 34.016" style="enable-background:new 0 0 34.016 34.016;"
	 xml:space="preserve">
<g id="icon-dashboard">
<g>
	<g>
		<path class="first" d="M30.395,27.508c0.959-1.967,1.513-4.17,1.513-6.506c0-8.229-6.671-14.896-14.899-14.896
			c-8.229,0-14.899,6.668-14.899,14.896c0,2.336,0.554,4.539,1.512,6.506H30.395z"/>
		<path class="line" d="M30.707,28.008H3.308l-0.137-0.281c-1.037-2.128-1.562-4.391-1.562-6.725c0-8.49,6.908-15.396,15.399-15.396
			s15.399,6.907,15.399,15.396c0,2.335-0.526,4.598-1.563,6.725L30.707,28.008z M3.937,27.008h26.142
			c0.882-1.907,1.329-3.927,1.329-6.006c0-7.938-6.46-14.396-14.399-14.396c-7.94,0-14.399,6.458-14.399,14.396
			C2.609,23.081,3.055,25.1,3.937,27.008z"/>
	</g>
	<g>
		<path class="second" d="M20.575,11.207l-1.316,9.84c-0.029,0.34-0.049,0.492-0.137,0.734c-0.424,1.172-1.719,1.772-2.887,1.348
			c-1.168-0.428-1.771-1.719-1.345-2.887c0.088-0.242,0.173-0.373,0.367-0.65L20.575,11.207z"/>
		<path class="line" d="M17.006,23.766c-0.321,0-0.638-0.057-0.941-0.167c-1.426-0.521-2.163-2.104-1.644-3.527
			c0.112-0.309,0.229-0.483,0.427-0.767l5.305-8.365c0.127-0.199,0.376-0.281,0.593-0.202c0.221,0.08,0.355,0.303,0.324,0.536
			l-1.316,9.84c-0.029,0.349-0.055,0.542-0.162,0.839C19.2,23.036,18.16,23.766,17.006,23.766z M19.778,13.398L15.68,19.86
			c-0.2,0.286-0.254,0.373-0.319,0.554c-0.331,0.906,0.139,1.914,1.046,2.246c0.887,0.322,1.926-0.166,2.245-1.048
			c0.066-0.184,0.08-0.286,0.108-0.607L19.778,13.398z"/>
	</g>
	<path class="line" d="M17.008,11.281c-0.276,0-0.5-0.224-0.5-0.5V8.674c0-0.276,0.224-0.5,0.5-0.5s0.5,0.224,0.5,0.5v2.107
		C17.508,11.058,17.284,11.281,17.008,11.281z"/>
	<path class="line" d="M11.896,12.651c-0.173,0-0.341-0.089-0.434-0.25l-1.054-1.823c-0.138-0.239-0.056-0.545,0.183-0.683
		c0.237-0.139,0.544-0.057,0.683,0.183l1.054,1.823c0.138,0.239,0.056,0.545-0.183,0.683C12.067,12.629,11.981,12.651,11.896,12.651
		z"/>
	<path class="line" d="M6.786,21.506H4.678c-0.276,0-0.5-0.224-0.5-0.5s0.224-0.5,0.5-0.5h2.108c0.276,0,0.5,0.224,0.5,0.5
		S7.063,21.506,6.786,21.506z"/>
	<path class="line" d="M8.153,16.394c-0.085,0-0.171-0.021-0.25-0.067L6.08,15.273c-0.239-0.138-0.321-0.444-0.183-0.683
		c0.138-0.24,0.444-0.322,0.683-0.183l1.823,1.054c0.239,0.138,0.321,0.444,0.183,0.683C8.494,16.304,8.326,16.394,8.153,16.394z"/>
	<path class="line" d="M29.336,21.502h-2.105c-0.276,0-0.5-0.224-0.5-0.5s0.224-0.5,0.5-0.5h2.105c0.276,0,0.5,0.224,0.5,0.5
		S29.613,21.502,29.336,21.502z"/>
	<path class="line" d="M25.86,16.392c-0.173,0-0.341-0.09-0.433-0.25c-0.139-0.239-0.057-0.545,0.183-0.683l1.824-1.053
		c0.239-0.139,0.546-0.057,0.683,0.183c0.139,0.239,0.057,0.545-0.183,0.683l-1.824,1.053C26.031,16.37,25.945,16.392,25.86,16.392z
		"/>
	<path class="line" d="M22.118,12.651c-0.085,0-0.172-0.021-0.25-0.067c-0.239-0.138-0.321-0.444-0.183-0.683l1.054-1.823
		c0.139-0.239,0.447-0.319,0.683-0.183c0.239,0.138,0.321,0.444,0.183,0.683l-1.054,1.823C22.458,12.561,22.29,12.651,22.118,12.651
		z"/>
</g>
</g>
</svg>
