<?xml version="1.0" encoding="utf-8"?>
<svg version="1.1" xmlns="http://www.w3.org/2000/svg" xmlns:xlink="http://www.w3.org/1999/xlink" x="0px" y="0px"
	 width="34.016px" height="34.016px" viewBox="0 0 34.016 34.016" style="enable-background:new 0 0 34.016 34.016;"
	 xml:space="preserve">
<g id="icon-dashboard">
<g>
	<path class="second" d="M17.678,15.59l7.974-7.974c-2.041-2.041-4.86-3.303-7.975-3.303L17.678,15.59z"/>
	<path class="line" d="M17.178,16.797L17.177,3.814h0.5c3.146,0,6.104,1.225,8.328,3.449l0.354,0.354L17.178,16.797z M18.177,4.825l0.001,9.558
		l6.759-6.759C23.07,5.92,20.703,4.94,18.177,4.825z"/>
</g>
<g>
	<path class="second" d="M27.658,24.322c1.285-1.831,2.045-4.057,2.045-6.463c0-3.114-1.262-5.934-3.303-7.975l-7.974,7.974
		L27.658,24.322z"/>
	<path class="line" d="M27.78,25.019l-10.128-7.093L26.4,9.178l0.354,0.354c2.225,2.224,3.449,5.182,3.449,8.328c0,2.426-0.738,4.76-2.136,6.75
		L27.78,25.019z M19.201,17.791l8.325,5.829c1.099-1.728,1.677-3.709,1.677-5.761c0-2.712-0.994-5.271-2.811-7.259L19.201,17.791z"
		/>
</g>
<g>
	<path class="first" d="M15.591,18.426V7.149c-3.821,0-7.192,1.905-9.232,4.812c-1.285,1.832-2.045,4.058-2.045,6.465
		c0,3.113,1.262,5.934,3.303,7.974c2.041,2.041,4.859,3.303,7.975,3.303c3.82,0,7.191-1.905,9.231-4.813L15.591,18.426z"/>
	<path class="line" d="M15.591,30.202c-3.146,0-6.104-1.225-8.328-3.449c-2.224-2.223-3.449-5.181-3.449-8.327c0-2.426,0.738-4.761,2.136-6.752
		c2.208-3.146,5.813-5.025,9.642-5.025h0.5v11.516l9.428,6.603l-0.287,0.409C23.024,28.323,19.42,30.202,15.591,30.202z
		 M15.091,7.661c-3.315,0.155-6.398,1.845-8.323,4.587c-1.278,1.822-1.954,3.958-1.954,6.178c0,2.88,1.121,5.586,3.156,7.62
		c2.036,2.035,4.742,3.156,7.621,3.156c3.337,0,6.487-1.56,8.525-4.196l-9.025-6.319V7.661z"/>
</g>
</g>
</svg>
