<?xml version="1.0" encoding="utf-8"?>
<svg version="1.1" xmlns="http://www.w3.org/2000/svg" xmlns:xlink="http://www.w3.org/1999/xlink" x="0px" y="0px"
	 width="34.016px" height="34.016px" viewBox="0 0 34.016 34.016" style="enable-background:new 0 0 34.016 34.016;"
	 xml:space="preserve">
	<style type="text/css" >
      <![CDATA[

        .line {
			fill:#999;
		}
		.first {
			fill:#222;
		}
		.second {
			fill:#354460;
		}
      ]]>
    </style>
<g id="icon-metadata">
<g>
	<g>
		<path class="first" d="M8.398,5.67c-0.468,0-1.156,0.23-1.529,0.512l-2.397,1.81C4.098,8.274,3.792,8.887,3.792,9.355v1.134
			c0,0.468,0.306,1.081,0.679,1.363l2.397,1.81c0.373,0.282,1.062,0.512,1.529,0.512h20.977c0.468,0,0.851-0.383,0.851-0.851V6.521
			c0-0.468-0.383-0.851-0.851-0.851H8.398z M7.718,11.204c-0.707,0-1.281-0.574-1.281-1.282c0-0.708,0.574-1.282,1.281-1.282
			c0.709,0,1.283,0.574,1.283,1.282C9.001,10.629,8.427,11.204,7.718,11.204z"/>
	</g>
	<path class="line" d="M29.375,14.674H8.398c-0.581,0-1.368-0.264-1.831-0.613L4.17,12.25c-0.5-0.378-0.877-1.135-0.877-1.762V9.355
		c0-0.626,0.377-1.384,0.877-1.762l2.397-1.81C7.03,5.434,7.817,5.17,8.398,5.17h20.977c0.745,0,1.351,0.606,1.351,1.351v6.803
		C30.725,14.068,30.12,14.674,29.375,14.674z M8.398,6.17c-0.358,0-0.943,0.196-1.228,0.411l-2.397,1.81
		c-0.247,0.187-0.48,0.655-0.48,0.964v1.134c0,0.309,0.233,0.777,0.48,0.964l2.397,1.81c0.285,0.215,0.87,0.411,1.228,0.411h20.977
		c0.19,0,0.351-0.161,0.351-0.351V6.521c0-0.19-0.16-0.351-0.351-0.351H8.398z M7.718,11.704c-0.982,0-1.781-0.799-1.781-1.782
		c0-0.983,0.799-1.782,1.781-1.782c0.983,0,1.783,0.799,1.783,1.782C9.501,10.904,8.702,11.704,7.718,11.704z M7.718,9.14
		c-0.431,0-0.781,0.351-0.781,0.782s0.351,0.782,0.781,0.782c0.432,0,0.783-0.351,0.783-0.782S8.15,9.14,7.718,9.14z"/>
</g>
<g>
	<g>
		<path class="second" d="M6.981,12.757c-0.468,0-1.156,0.23-1.529,0.512l-2.398,1.81c-0.373,0.282-0.679,0.895-0.679,1.363v1.133
			c0,0.468,0.306,1.081,0.679,1.363l2.398,1.81c0.373,0.282,1.062,0.513,1.529,0.513h20.976c0.468,0,0.851-0.383,0.851-0.851v-6.802
			c0-0.468-0.383-0.851-0.851-0.851H6.981z M6.301,18.29c-0.708,0-1.282-0.574-1.282-1.281c0-0.708,0.574-1.282,1.282-1.282
			s1.282,0.574,1.282,1.282C7.583,17.716,7.009,18.29,6.301,18.29z"/>
	</g>
	<path class="line" d="M27.957,21.761H6.981c-0.581,0-1.368-0.264-1.831-0.614l-2.398-1.809c-0.5-0.379-0.877-1.137-0.877-1.763v-1.133
		c0-0.626,0.377-1.384,0.877-1.762l2.398-1.81c0.463-0.35,1.25-0.613,1.831-0.613h20.976c0.745,0,1.351,0.606,1.351,1.351v6.802
		C29.307,21.155,28.702,21.761,27.957,21.761z M6.981,13.257c-0.358,0-0.943,0.196-1.228,0.411l-2.398,1.81
		c-0.247,0.187-0.48,0.655-0.48,0.964v1.133c0,0.309,0.233,0.777,0.48,0.965l2.398,1.809c0.285,0.216,0.87,0.412,1.228,0.412h20.976
		c0.19,0,0.351-0.16,0.351-0.351v-6.802c0-0.19-0.16-0.351-0.351-0.351H6.981z M6.301,18.79c-0.983,0-1.782-0.799-1.782-1.781
		c0-0.983,0.799-1.782,1.782-1.782s1.782,0.799,1.782,1.782C8.083,17.991,7.284,18.79,6.301,18.79z M6.301,16.227
		c-0.431,0-0.782,0.351-0.782,0.782c0,0.431,0.351,0.781,0.782,0.781s0.782-0.351,0.782-0.781
		C7.083,16.578,6.732,16.227,6.301,16.227z"/>
</g>
<g>
	<g>
		<path class="first" d="M9.815,19.843c-0.468,0-1.156,0.23-1.529,0.513l-2.396,1.809C5.516,22.446,5.21,23.06,5.21,23.527v1.134
			c0,0.468,0.305,1.081,0.679,1.363l2.396,1.81c0.374,0.282,1.062,0.513,1.529,0.513h20.977c0.468,0,0.851-0.383,0.851-0.851v-6.803
			c0-0.468-0.383-0.851-0.851-0.851H9.815z M9.136,25.376c-0.708,0-1.281-0.574-1.281-1.281c0-0.709,0.573-1.283,1.281-1.283
			s1.282,0.574,1.282,1.283C10.418,24.802,9.844,25.376,9.136,25.376z"/>
	</g>
	<path class="line" d="M30.792,28.847H9.815c-0.581,0-1.368-0.264-1.831-0.613l-2.396-1.81c-0.5-0.378-0.877-1.136-0.877-1.763v-1.134
		c0-0.626,0.377-1.384,0.877-1.762l2.397-1.81c0.462-0.35,1.25-0.613,1.831-0.613h20.977c0.745,0,1.351,0.605,1.351,1.351v6.803
		C32.142,28.241,31.537,28.847,30.792,28.847z M9.815,20.343c-0.358,0-0.943,0.196-1.228,0.411l-2.397,1.81
		c-0.247,0.187-0.48,0.655-0.48,0.964v1.134c0,0.31,0.233,0.778,0.48,0.964l2.396,1.81c0.285,0.216,0.871,0.412,1.228,0.412h20.977
		c0.19,0,0.351-0.16,0.351-0.351v-6.803c0-0.19-0.16-0.351-0.351-0.351H9.815z M9.136,25.876c-0.982,0-1.781-0.799-1.781-1.781
		c0-0.983,0.799-1.783,1.781-1.783c0.983,0,1.782,0.8,1.782,1.783C10.918,25.077,10.119,25.876,9.136,25.876z M9.136,23.312
		c-0.431,0-0.781,0.352-0.781,0.783c0,0.431,0.351,0.781,0.781,0.781c0.431,0,0.782-0.351,0.782-0.781
		C9.918,23.663,9.567,23.312,9.136,23.312z"/>
</g>
</g>
</svg>
